<svg xmlns="http://www.w3.org/2000/svg" version="1.1" xmlns:xlink="http://www.w3.org/1999/xlink" xmlns:svgjs="http://svgjs.com/svgjs" width="1440" height="560" preserveAspectRatio="none" viewBox="0 0 1440 560"><g mask="url(&quot;#SvgjsMask1000&quot;)" fill="none"><rect width="1440" height="560" x="0" y="0" fill="#1e3266"></rect><path d="M1536 560L0 560 L0 372.21Q35.19 287.39, 120 322.58Q193.07 275.65, 240 348.73Q250.56 287.3, 312 297.86Q354.53 268.39, 384 310.92Q440.81 295.73, 456 352.54Q528.48 305.02, 576 377.5Q582.63 312.13, 648 318.75Q666.32 265.07, 720 283.39Q761.64 253.03, 792 294.67Q884.68 267.36, 912 360.04Q938.58 314.62, 984 341.19Q1034.91 272.11, 1104 323.02Q1142.58 241.6, 1224 280.18Q1268.02 252.2, 1296 296.22Q1392.12 272.34, 1416 368.45Q1458.27 290.72, 1536 332.98z" fill="#182f5d"></path><path d="M1536 560L0 560 L0 379.55Q48.66 308.21, 120 356.87Q196.38 313.25, 240 389.64Q265.94 343.58, 312 369.53Q363.53 349.06, 384 400.59Q411.38 355.97, 456 383.35Q479.83 335.19, 528 359.02Q613.97 324.99, 648 410.95Q663.28 354.23, 720 369.51Q750.76 328.27, 792 359.03Q872.9 319.93, 912 400.84Q963.12 379.95, 984 431.07Q993.77 368.84, 1056 378.61Q1123.88 326.49, 1176 394.37Q1218.11 316.48, 1296 358.58Q1385.38 327.97, 1416 417.35Q1461.64 342.99, 1536 388.63z" fill="#25467d"></path><path d="M1536 560L0 560 L0 479.87Q40.49 448.37, 72 488.86Q120.12 416.98, 192 465.09Q215.28 416.37, 264 439.65Q343.37 399.01, 384 478.38Q406.68 429.06, 456 451.74Q523.59 399.33, 576 466.92Q651.4 422.33, 696 497.73Q762.58 444.31, 816 510.89Q843.74 418.63, 936 446.36Q983.59 421.95, 1008 469.54Q1089.91 431.45, 1128 513.36Q1150.45 463.81, 1200 486.27Q1242.72 457, 1272 499.72Q1281.48 437.2, 1344 446.68Q1374.65 405.34, 1416 435.99Q1514.4 414.39, 1536 512.79z" fill="#356cb1"></path><path d="M1464 560L0 560 L0 500.57Q89.33 469.9, 120 559.24Q171.49 490.73, 240 542.22Q295.43 525.65, 312 581.09Q344.25 493.35, 432 525.6Q505.96 479.56, 552 553.52Q626.82 508.34, 672 583.15Q689.69 480.84, 792 498.52Q866.26 452.78, 912 527.05Q966.86 461.91, 1032 516.77Q1089.72 502.49, 1104 560.2Q1134.17 470.38, 1224 500.55Q1302.29 458.84, 1344 537.12Q1395.84 468.96, 1464 520.8z" fill="white"></path></g><defs><mask id="SvgjsMask1000"><rect width="1440" height="560" fill="#ffffff"></rect></mask></defs></svg>